{
    "asset" : {
        "generator" : "Khronos glTF Blender I/O v1.1.45",
        "version" : "2.0"
    },
    "scene" : 0,
    "scenes" : [
        {
            "name" : "Scene",
            "nodes" : [
                0
            ]
        }
    ],
    "nodes" : [
        {
            "mesh" : 0,
            "name" : "Cube",
            "scale" : [
                0.6248366236686707,
                0.6248366236686707,
                0.6248366236686707
            ]
        }
    ],
    "materials" : [
        {
            "doubleSided" : true,
            "name" : "Material.001",
            "pbrMetallicRoughness" : {}
        },
        {
            "doubleSided" : true,
            "name" : "Material.002",
            "pbrMetallicRoughness" : {}
        },
        {
            "doubleSided" : true,
            "name" : "Material.003",
            "pbrMetallicRoughness" : {}
        }
    ],
    "meshes" : [
        {
            "name" : "Cube",
            "primitives" : [
                {
                    "attributes" : {
                        "POSITION" : 0,
                        "NORMAL" : 1,
                        "TEXCOORD_0" : 2
                    },
                    "indices" : 3,
                    "material" : 0
                },
                {
                    "attributes" : {
                        "POSITION" : 4,
                        "NORMAL" : 5,
                        "TEXCOORD_0" : 6
                    },
                    "indices" : 7,
                    "material" : 1
                },
                {
                    "attributes" : {
                        "POSITION" : 8,
                        "NORMAL" : 9,
                        "TEXCOORD_0" : 10
                    },
                    "indices" : 11,
                    "material" : 2
                }
            ]
        }
    ],
    "accessors" : [
        {
            "bufferView" : 0,
            "componentType" : 5126,
            "count" : 213,
            "max" : [
                0.800000011920929,
                0.7156917452812195,
                0.800000011920929
            ],
            "min" : [
                -0.800000011920929,
                -0.8152916431427002,
                -0.800000011920929
            ],
            "type" : "VEC3"
        },
        {
            "bufferView" : 1,
            "componentType" : 5126,
            "count" : 213,
            "type" : "VEC3"
        },
        {
            "bufferView" : 2,
            "componentType" : 5126,
            "count" : 213,
            "type" : "VEC2"
        },
        {
            "bufferView" : 3,
            "componentType" : 5123,
            "count" : 372,
            "type" : "SCALAR"
        },
        {
            "bufferView" : 4,
            "componentType" : 5126,
            "count" : 48,
            "max" : [
                0.800000011920929,
                0.5637326240539551,
                0.800000011920929
            ],
            "min" : [
                -0.800000011920929,
                -0.8152916431427002,
                -0.800000011920929
            ],
            "type" : "VEC3"
        },
        {
            "bufferView" : 5,
            "componentType" : 5126,
            "count" : 48,
            "type" : "VEC3"
        },
        {
            "bufferView" : 6,
            "componentType" : 5126,
            "count" : 48,
            "type" : "VEC2"
        },
        {
            "bufferView" : 7,
            "componentType" : 5123,
            "count" : 72,
            "type" : "SCALAR"
        },
        {
            "bufferView" : 8,
            "componentType" : 5126,
            "count" : 80,
            "max" : [
                0.800000011920929,
                0.7156917452812195,
                0.800000011920929
            ],
            "min" : [
                -0.800000011920929,
                -0.800000011920929,
                -0.800000011920929
            ],
            "type" : "VEC3"
        },
        {
            "bufferView" : 9,
            "componentType" : 5126,
            "count" : 80,
            "type" : "VEC3"
        },
        {
            "bufferView" : 10,
            "componentType" : 5126,
            "count" : 80,
            "type" : "VEC2"
        },
        {
            "bufferView" : 11,
            "componentType" : 5123,
            "count" : 120,
            "type" : "SCALAR"
        }
    ],
    "bufferViews" : [
        {
            "buffer" : 0,
            "byteLength" : 2556,
            "byteOffset" : 0
        },
        {
            "buffer" : 0,
            "byteLength" : 2556,
            "byteOffset" : 2556
        },
        {
            "buffer" : 0,
            "byteLength" : 1704,
            "byteOffset" : 5112
        },
        {
            "buffer" : 0,
            "byteLength" : 744,
            "byteOffset" : 6816
        },
        {
            "buffer" : 0,
            "byteLength" : 576,
            "byteOffset" : 7560
        },
        {
            "buffer" : 0,
            "byteLength" : 576,
            "byteOffset" : 8136
        },
        {
            "buffer" : 0,
            "byteLength" : 384,
            "byteOffset" : 8712
        },
        {
            "buffer" : 0,
            "byteLength" : 144,
            "byteOffset" : 9096
        },
        {
            "buffer" : 0,
            "byteLength" : 960,
            "byteOffset" : 9240
        },
        {
            "buffer" : 0,
            "byteLength" : 960,
            "byteOffset" : 10200
        },
        {
            "buffer" : 0,
            "byteLength" : 640,
            "byteOffset" : 11160
        },
        {
            "buffer" : 0,
            "byteLength" : 240,
            "byteOffset" : 11800
        }
    ],
    "buffers" : [
        {
            "byteLength" : 12040,
            "uri" : "tower.bin"
        }
    ]
}
